# xmcd
#
# Track frame offsets:
#	183
#	13370
#	24983
#	38683
#	52408
#	66858
#	80483
#	97783
#	110633
#	124458
#	134958
#	146970
#	159270
#	170295
#	181333
#	194708
#
# Disc length: 2789 seconds
#
# Revision: 9
# Processed by: cddbd v1.5.2PL0 Copyright (c) Steve Scherf et al.
# Submitted via: EasyCDDAExtractor 16.0.6.1
#
DISCID=f00ae310
DTITLE=Varios - B-006 Blue Midnight
DYEAR=1990
DGENRE=Blues
TTITLE0=Howlin' Wolf - Moanin' At Midnight
TTITLE1=John Lee Hooker - Boogie Chillun
TTITLE2=Muddy Waters - I'm Ready
TTITLE3=Koko Taylor - Wang Dang Doodle
TTITLE4=Little Milton - Blues In The Night
TTITLE5=Lowell Fulson - Lovin' You
TTITLE6=John Lee Hooker - Blues Before Sunrise
TTITLE7=Muddy Waters - I'm Your Hoochie Coochie Man
TTITLE8=Etta James - I Just Want To Make Love To You
TTITLE9=Sonny Boy Williamson - Let Your Conscience Be Your Guide
TTITLE10=Little Walter - My Babe
TTITLE11=Elmore James - The Sky Is Crying
TTITLE12=Koko Taylor - Whatever I Am, You Made Me
TTITLE13=Howlin' Wolf - The Red Rooster
TTITLE14=Etta James - At Last
TTITLE15=Little Walter - Sad Hours
EXTD=YEAR: 1990
EXTT0=Howlin' Wolf
EXTT1=John Lee Hooker
EXTT2=Muddy Waters
EXTT3=Koko Taylor
EXTT4=Little Milton
EXTT5=Lowell Fulson
EXTT6=John Lee Hooker
EXTT7=Muddy Waters
EXTT8=Etta James
EXTT9=Sonny Boy Williamson
EXTT10=Little Walter
EXTT11=Elmore James
EXTT12=Koko Taylor
EXTT13=Howlin' Wolf
EXTT14=Etta James
EXTT15=Little Walter
PLAYORDER=
